<!DOCTYPE svg PUBLIC "-//W3C//DTD SVG 20010904//EN" "http://www.w3.org/TR/2001/REC-SVG-20010904/DTD/svg10.dtd">
<svg version="1.0" xmlns="http://www.w3.org/2000/svg" width="219px" height="218px" viewBox="0 0 2190 2180" preserveAspectRatio="xMidYMid meet">
<g id="layer101" fill="#010101" stroke="none">
 <path d="M950 2153 c-117 -13 -294 -74 -403 -139 -250 -150 -418 -376 -500 -674 -30 -112 -31 -379 0 -501 96 -381 382 -677 758 -784 562 -161 1155 170 1319 736 159 550 -145 1130 -688 1315 -138 47 -322 65 -486 47z"/>
 </g>
<g id="layer102" fill="#626262" stroke="none">
 <path d="M1168 2153 c12 -2 32 -2 45 0 12 2 2 4 -23 4 -25 0 -35 -2 -22 -4z"/>
 <path d="M900 2000 c-187 -41 -325 -116 -463 -253 -155 -153 -245 -340 -269 -558 -48 -435 213 -841 632 -984 105 -36 204 -48 337 -42 244 10 446 100 620 276 108 109 176 223 229 381 26 80 28 95 28 260 1 202 -8 247 -80 399 -55 116 -112 197 -200 282 -108 102 -224 172 -364 217 -141 46 -322 54 -470 22z m242 -760 c20 -6 50 -26 67 -45 101 -115 -2 -289 -154 -261 -47 9 -100 62 -114 114 -27 97 46 195 149 201 8 1 32 -4 52 -9z"/>
 <path d="M364 1878 l-29 -33 33 29 c17 17 32 31 32 33 0 8 -8 1 -36 -29z"/>
 <path d="M294 1808 l-29 -33 33 29 c17 17 32 31 32 33 0 8 -8 1 -36 -29z"/>
 <path d="M22 1180 c0 -19 2 -27 5 -17 2 9 2 25 0 35 -3 9 -5 1 -5 -18z"/>
 <path d="M2163 1090 c0 -41 2 -58 4 -37 2 20 2 54 0 75 -2 20 -4 3 -4 -38z"/>
 <path d="M22 1000 c0 -19 2 -27 5 -17 2 9 2 25 0 35 -3 9 -5 1 -5 -18z"/>
 <path d="M1845 328 l-50 -53 53 50 c48 46 57 55 49 55 -1 0 -25 -24 -52 -52z"/>
 <path d="M1058 13 c17 -2 47 -2 65 0 17 2 3 4 -33 4 -36 0 -50 -2 -32 -4z"/>
 </g>
<g id="layer103" fill="#aa9700" stroke="none">
 <path d="M900 2000 c-187 -41 -325 -116 -463 -253 -155 -153 -245 -340 -269 -558 -48 -435 213 -841 632 -984 105 -36 204 -48 337 -42 244 10 446 100 620 276 108 109 176 223 229 381 26 80 28 95 28 260 1 202 -8 247 -80 399 -55 116 -112 197 -200 282 -108 102 -224 172 -364 217 -141 46 -322 54 -470 22z m242 -760 c20 -6 50 -26 67 -45 101 -115 -2 -289 -154 -261 -47 9 -100 62 -114 114 -27 97 46 195 149 201 8 1 32 -4 52 -9z"/>
 <path d="M1058 13 c17 -2 47 -2 65 0 17 2 3 4 -33 4 -36 0 -50 -2 -32 -4z"/>
 </g>
<g id="layer104" fill="#d6b500" stroke="none">
 <path d="M985 2014 c-76 -11 -151 -27 -160 -34 -5 -4 -33 -15 -61 -23 -110 -32 -216 -101 -328 -213 -91 -92 -123 -136 -176 -242 -104 -209 -124 -460 -55 -684 141 -454 592 -726 1062 -640 61 12 120 26 130 31 10 6 46 22 81 36 124 50 303 201 391 328 17 25 31 48 31 50 0 3 18 43 40 90 50 106 80 241 80 367 0 93 -24 265 -39 285 -5 5 -14 28 -21 50 -22 72 -89 189 -145 257 -127 153 -315 274 -497 318 -80 20 -267 33 -333 24z m637 -261 c65 -47 141 -133 188 -212 22 -37 40 -71 40 -77 0 -5 -96 -57 -214 -116 l-213 -107 19 -58 c25 -73 19 -162 -17 -240 -63 -138 -178 -213 -335 -217 l-74 -3 -51 -204 c-28 -112 -55 -216 -58 -231 l-7 -27 -53 15 c-85 25 -168 66 -163 80 2 6 55 104 116 216 l111 203 -23 15 c-52 34 -87 73 -119 132 -32 60 -34 68 -34 163 0 87 3 107 27 157 34 73 104 142 176 176 75 35 192 42 258 17 25 -9 47 -16 48 -14 2 2 52 100 110 217 l107 213 57 -32 c31 -17 78 -47 104 -66z"/>
 <path d="M984 1331 c-51 -23 -104 -75 -130 -127 -14 -28 -19 -60 -19 -114 0 -54 5 -86 19 -114 84 -168 308 -201 431 -64 49 54 68 101 69 173 0 77 -17 128 -63 178 -74 82 -210 112 -307 68z m156 -91 c75 -21 130 -115 110 -190 -30 -110 -161 -156 -251 -87 -74 56 -88 151 -32 223 44 58 98 75 173 54z"/>
 <path d="M1058 13 c17 -2 47 -2 65 0 17 2 3 4 -33 4 -36 0 -50 -2 -32 -4z"/>
 </g>
<g id="layer105" fill="#9c9c9c" stroke="none">
 <path d="M965 2010 c-128 -20 -291 -86 -405 -163 -118 -81 -251 -239 -307 -366 -13 -31 -29 -65 -33 -76 -20 -43 -42 -154 -48 -235 -22 -284 69 -538 264 -734 197 -198 483 -300 754 -268 340 40 640 264 756 564 14 35 29 70 34 79 4 9 16 62 26 119 82 496 -241 967 -736 1070 -77 16 -234 21 -305 10z m271 -81 c32 -7 63 -15 67 -19 5 -4 -17 -110 -47 -235 -53 -213 -55 -229 -39 -240 21 -15 27 -5 155 250 44 88 82 162 85 165 8 9 116 -54 184 -107 121 -95 236 -278 280 -448 25 -95 30 -276 10 -370 -57 -273 -230 -491 -484 -610 -185 -88 -412 -102 -612 -40 -44 14 -99 36 -122 48 l-43 22 115 210 c63 116 115 212 115 215 0 3 -19 18 -41 34 -22 15 -51 45 -65 66 l-26 38 -215 -104 c-119 -57 -217 -104 -218 -104 -1 0 -13 24 -25 53 -82 190 -92 411 -26 605 59 173 180 335 324 434 68 47 202 106 288 127 91 23 250 27 340 10z"/>
 <path d="M1024 1339 c-108 -31 -186 -135 -186 -246 0 -191 189 -318 357 -239 95 44 146 118 153 222 12 172 -160 311 -324 263z m145 -109 c131 -66 103 -269 -40 -299 -72 -15 -145 18 -176 79 -74 148 70 295 216 220z"/>
 <path d="M1058 13 c17 -2 47 -2 65 0 17 2 3 4 -33 4 -36 0 -50 -2 -32 -4z"/>
 </g>
<g id="layer106" fill="#fbe000" stroke="none">
 <path d="M965 2010 c-128 -20 -291 -86 -405 -163 -118 -81 -251 -239 -307 -366 -13 -31 -29 -65 -33 -76 -20 -43 -42 -154 -48 -235 -22 -284 69 -538 264 -734 197 -198 483 -300 754 -268 340 40 640 264 756 564 14 35 29 70 34 79 4 9 16 62 26 119 82 496 -241 967 -736 1070 -77 16 -234 21 -305 10z m271 -81 c32 -7 63 -15 67 -19 5 -4 -17 -110 -47 -235 -53 -213 -55 -229 -39 -240 21 -15 27 -5 155 250 44 88 82 162 85 165 8 9 116 -54 184 -107 121 -95 236 -278 280 -448 25 -95 30 -276 10 -370 -57 -273 -230 -491 -484 -610 -185 -88 -412 -102 -612 -40 -44 14 -99 36 -122 48 l-43 22 115 210 c63 116 115 212 115 215 0 3 -19 18 -41 34 -22 15 -51 45 -65 66 l-26 38 -215 -104 c-119 -57 -217 -104 -218 -104 -1 0 -13 24 -25 53 -82 190 -92 411 -26 605 59 173 180 335 324 434 68 47 202 106 288 127 91 23 250 27 340 10z"/>
 <path d="M1024 1339 c-108 -31 -186 -135 -186 -246 0 -191 189 -318 357 -239 95 44 146 118 153 222 12 172 -160 311 -324 263z m145 -109 c131 -66 103 -269 -40 -299 -72 -15 -145 18 -176 79 -74 148 70 295 216 220z"/>
 </g>

</svg>