<!DOCTYPE svg PUBLIC "-//W3C//DTD SVG 20010904//EN" "http://www.w3.org/TR/2001/REC-SVG-20010904/DTD/svg10.dtd">
<svg version="1.0" xmlns="http://www.w3.org/2000/svg" width="236px" height="238px" viewBox="0 0 2360 2380" preserveAspectRatio="xMidYMid meet">
<g id="layer101" fill="#010101" stroke="none">
 <path d="M1248 2235 c-268 -63 -521 -126 -561 -139 -112 -37 -193 -90 -288 -186 -71 -71 -94 -103 -133 -181 -25 -51 -53 -121 -62 -154 -20 -75 -29 -246 -16 -302 l10 -43 -79 0 -79 0 0 -117 c0 -98 4 -129 24 -185 39 -110 112 -197 209 -248 l47 -25 0 -152 0 -153 154 0 154 0 23 -47 c13 -27 49 -74 80 -106 98 -98 224 -141 394 -135 l80 3 3 75 3 76 123 -4 c101 -4 137 -1 206 17 266 67 477 275 550 543 32 119 229 975 236 1027 3 27 1 80 -6 119 -32 194 -182 362 -368 413 -124 35 -169 29 -704 -96z"/>
 </g>
<g id="layer102" fill="#107c10" stroke="none">
 <path d="M1250 2092 c-595 -142 -620 -151 -736 -266 -83 -84 -126 -150 -165 -259 -19 -52 -23 -83 -23 -187 0 -129 0 -126 59 -272 7 -17 -2 -18 -100 -18 l-108 0 7 -52 c9 -67 34 -124 75 -171 35 -39 140 -97 178 -97 l23 0 0 -140 0 -140 140 0 140 0 6 -27 c14 -66 28 -96 65 -143 47 -60 120 -99 195 -107 l54 -6 0 107 c0 58 2 106 4 106 2 0 25 -10 52 -22 78 -34 143 -48 230 -48 114 0 186 16 284 62 140 67 262 207 314 360 8 25 65 264 127 530 119 512 126 561 95 652 -51 151 -175 243 -338 251 -79 4 -108 -1 -578 -113z"/>
 <path d="M2323 1840 c0 -30 2 -43 4 -27 2 15 2 39 0 55 -2 15 -4 2 -4 -28z"/>
 <path d="M183 1445 c0 -22 2 -30 4 -17 2 12 2 30 0 40 -3 9 -5 -1 -4 -23z"/>
 <path d="M1880 425 c-24 -25 -42 -45 -39 -45 3 0 25 20 49 45 24 25 42 45 39 45 -3 0 -25 -20 -49 -45z"/>
 <path d="M1200 150 l0 -79 -97 -4 -98 -3 100 0 100 1 3 75 c2 44 8 78 15 82 8 5 6 8 -5 8 -16 0 -18 -10 -18 -80z"/>
 </g>
<g id="layer103" fill="#af0e1a" stroke="none">
 <path d="M1250 2092 c-595 -142 -620 -151 -736 -266 -83 -84 -126 -150 -165 -259 -19 -52 -23 -83 -23 -187 0 -118 2 -130 33 -207 l32 -83 70 0 69 0 0 176 0 177 52 -7 c104 -14 184 -68 233 -157 30 -53 30 -57 33 -225 l4 -172 161 -5 c183 -5 230 -17 295 -73 52 -44 102 -142 102 -201 l0 -43 -175 0 -175 0 0 -69 0 -69 53 -22 c83 -36 146 -50 233 -50 114 0 186 16 284 62 140 67 262 207 314 360 8 25 65 264 127 530 119 512 126 561 95 652 -51 151 -175 243 -338 251 -79 4 -108 -1 -578 -113z"/>
 <path d="M2323 1840 c0 -30 2 -43 4 -27 2 15 2 39 0 55 -2 15 -4 2 -4 -28z"/>
 <path d="M183 1445 c0 -22 2 -30 4 -17 2 12 2 30 0 40 -3 9 -5 -1 -4 -23z"/>
 <path d="M1880 425 c-24 -25 -42 -45 -39 -45 3 0 25 20 49 45 24 25 42 45 39 45 -3 0 -25 -20 -49 -45z"/>
 <path d="M1200 150 l0 -79 -97 -4 -98 -3 100 0 100 1 3 75 c2 44 8 78 15 82 8 5 6 8 -5 8 -16 0 -18 -10 -18 -80z"/>
 </g>
<g id="layer104" fill="#646464" stroke="none">
 <path d="M1770 2203 c-36 -6 -215 -43 -280 -59 -30 -7 -161 -38 -290 -68 -371 -87 -411 -97 -483 -122 -38 -13 -97 -43 -131 -68 -222 -158 -314 -440 -229 -701 28 -88 36 -95 109 -95 l64 0 0 176 0 177 52 -7 c104 -14 184 -68 233 -157 30 -53 30 -57 33 -225 l4 -172 161 -5 c183 -5 230 -17 295 -73 52 -44 102 -142 102 -201 l0 -43 -175 0 -175 0 0 -68 0 -68 49 -22 c210 -91 470 -54 645 93 120 101 174 207 233 459 42 180 51 220 88 381 9 36 22 94 30 130 87 376 85 364 69 447 -25 124 -110 223 -227 266 -55 21 -136 32 -177 25z m-741 -299 c25 -20 31 -34 31 -63 0 -33 -8 -45 -64 -99 -38 -37 -73 -62 -86 -62 -49 0 -100 49 -100 95 0 8 30 46 68 84 76 79 102 87 151 45z m420 0 c25 -21 31 -33 31 -66 0 -34 -7 -46 -54 -93 -30 -30 -66 -57 -80 -61 -40 -10 -86 14 -102 53 -20 46 -2 85 66 146 61 55 93 60 139 21z m410 11 c33 -16 41 -33 41 -81 0 -28 -10 -45 -52 -88 -29 -30 -65 -58 -81 -61 -41 -11 -87 13 -103 52 -20 46 -2 85 66 146 56 50 82 57 129 32z m-828 -434 c21 -22 29 -39 29 -66 0 -31 -8 -45 -54 -90 -56 -56 -89 -71 -131 -61 -27 7 -65 59 -65 89 0 26 139 157 168 157 13 0 37 -13 53 -29z m418 3 c47 -39 43 -87 -10 -148 -44 -50 -85 -76 -119 -76 -54 0 -99 66 -79 118 21 55 112 132 156 132 12 0 35 -12 52 -26z m404 14 c34 -18 46 -40 47 -82 0 -34 -7 -46 -53 -92 -29 -29 -65 -56 -80 -59 -66 -17 -130 50 -106 112 20 53 111 133 152 133 10 0 28 -5 40 -12z m-395 -444 c14 -16 22 -38 22 -60 0 -30 -9 -45 -59 -95 -47 -47 -66 -59 -91 -59 -44 0 -69 16 -86 55 -18 43 -7 76 44 129 67 70 125 80 170 30z m418 4 c48 -44 33 -100 -46 -171 -57 -51 -92 -59 -135 -31 -26 17 -43 57 -37 91 4 30 74 106 114 127 38 19 73 13 104 -16z"/>
 <path d="M2323 1840 c0 -30 2 -43 4 -27 2 15 2 39 0 55 -2 15 -4 2 -4 -28z"/>
 <path d="M183 1445 c0 -22 2 -30 4 -17 2 12 2 30 0 40 -3 9 -5 -1 -4 -23z"/>
 <path d="M1880 425 c-24 -25 -42 -45 -39 -45 3 0 25 20 49 45 24 25 42 45 39 45 -3 0 -25 -20 -49 -45z"/>
 <path d="M1200 150 l0 -79 -97 -4 -98 -3 100 0 100 1 3 75 c2 44 8 78 15 82 8 5 6 8 -5 8 -16 0 -18 -10 -18 -80z"/>
 </g>
<g id="layer105" fill="#ef3a17" stroke="none">
 <path d="M1770 2203 c-36 -6 -215 -43 -280 -59 -30 -7 -161 -38 -290 -68 -371 -87 -411 -97 -483 -122 -38 -13 -97 -43 -131 -68 -222 -158 -314 -440 -229 -701 28 -88 36 -95 109 -95 l64 0 0 176 0 177 52 -7 c104 -14 184 -68 233 -157 30 -53 30 -57 33 -225 l4 -172 161 -5 c183 -5 230 -17 295 -73 52 -44 102 -142 102 -201 l0 -43 -175 0 -175 0 0 -68 0 -68 49 -22 c210 -91 470 -54 645 93 120 101 174 207 233 459 42 180 51 220 88 381 9 36 22 94 30 130 87 376 85 364 69 447 -25 124 -110 223 -227 266 -55 21 -136 32 -177 25z m-741 -299 c25 -20 31 -34 31 -63 0 -33 -8 -45 -64 -99 -38 -37 -73 -62 -86 -62 -49 0 -100 49 -100 95 0 8 30 46 68 84 76 79 102 87 151 45z m420 0 c25 -21 31 -33 31 -66 0 -34 -7 -46 -54 -93 -30 -30 -66 -57 -80 -61 -40 -10 -86 14 -102 53 -20 46 -2 85 66 146 61 55 93 60 139 21z m410 11 c33 -16 41 -33 41 -81 0 -28 -10 -45 -52 -88 -29 -30 -65 -58 -81 -61 -41 -11 -87 13 -103 52 -20 46 -2 85 66 146 56 50 82 57 129 32z m-828 -434 c21 -22 29 -39 29 -66 0 -31 -8 -45 -54 -90 -56 -56 -89 -71 -131 -61 -27 7 -65 59 -65 89 0 26 139 157 168 157 13 0 37 -13 53 -29z m418 3 c47 -39 43 -87 -10 -148 -44 -50 -85 -76 -119 -76 -54 0 -99 66 -79 118 21 55 112 132 156 132 12 0 35 -12 52 -26z m404 14 c34 -18 46 -40 47 -82 0 -34 -7 -46 -53 -92 -29 -29 -65 -56 -80 -59 -66 -17 -130 50 -106 112 20 53 111 133 152 133 10 0 28 -5 40 -12z m-395 -444 c14 -16 22 -38 22 -60 0 -30 -9 -45 -59 -95 -47 -47 -66 -59 -91 -59 -44 0 -69 16 -86 55 -18 43 -7 76 44 129 67 70 125 80 170 30z m418 4 c48 -44 33 -100 -46 -171 -57 -51 -92 -59 -135 -31 -26 17 -43 57 -37 91 4 30 74 106 114 127 38 19 73 13 104 -16z"/>
 <path d="M1203 145 c0 -44 2 -61 4 -37 2 23 2 59 0 80 -2 20 -4 1 -4 -43z"/>
 </g>
<g id="layer106" fill="#9b9b9b" stroke="none">
 <path d="M1203 145 c0 -44 2 -61 4 -37 2 23 2 59 0 80 -2 20 -4 1 -4 -43z"/>
 </g>

</svg>