<!DOCTYPE svg PUBLIC "-//W3C//DTD SVG 20010904//EN" "http://www.w3.org/TR/2001/REC-SVG-20010904/DTD/svg10.dtd">
<svg version="1.0" xmlns="http://www.w3.org/2000/svg" width="202px" height="227px" viewBox="0 0 2020 2270" preserveAspectRatio="xMidYMid meet">
<g id="layer101" fill="#010101" stroke="none">
 <path d="M925 2256 c-42 -18 -93 -63 -110 -96 l-14 -28 -168 -4 c-141 -4 -178 -8 -227 -26 -172 -63 -305 -196 -368 -368 -17 -47 -22 -88 -26 -201 l-4 -143 106 0 c59 0 105 -4 102 -8 -6 -11 41 -198 60 -233 19 -38 18 -43 -11 -59 -13 -7 -58 -50 -99 -95 l-74 -81 62 -65 c33 -35 79 -79 100 -96 l39 -32 -17 -38 c-18 -41 -67 -225 -61 -231 1 -2 63 -18 137 -36 122 -30 133 -35 136 -57 1 -13 14 -72 29 -132 20 -79 31 -107 42 -107 26 0 199 49 230 65 29 14 29 14 69 -38 22 -28 66 -74 96 -100 l56 -48 28 19 c30 22 130 125 153 160 l16 22 54 -24 c57 -25 206 -62 215 -53 9 8 64 219 64 242 0 18 12 23 83 38 129 27 187 47 187 64 0 30 -42 178 -62 217 l-21 40 24 15 c32 20 159 142 170 162 6 12 -14 39 -89 115 l-98 100 18 39 c9 22 28 84 40 137 l23 98 104 0 104 0 -6 134 c-7 147 -25 218 -80 316 -44 78 -148 178 -233 222 -101 53 -173 68 -341 68 -102 0 -143 3 -143 12 0 25 -52 77 -102 102 -59 29 -142 35 -193 12z"/>
 </g>
<g id="layer102" fill="#13a10e" stroke="none">
 <path d="M844 2198 l-29 -33 33 29 c17 17 32 31 32 33 0 8 -8 1 -36 -29z"/>
 <path d="M513 2123 c9 -2 25 -2 35 0 9 3 1 5 -18 5 -19 0 -27 -2 -17 -5z"/>
 <path d="M957 2109 c-20 -15 -28 -33 -33 -70 l-7 -49 -186 0 c-202 0 -261 -9 -351 -55 -127 -64 -230 -235 -230 -381 l0 -24 138 0 c89 0 155 5 183 14 24 7 135 70 246 139 l202 125 3 -134 c3 -114 0 -138 -14 -157 -10 -12 -20 -34 -23 -49 -4 -16 -9 -28 -12 -28 -3 0 -23 14 -44 31 -21 16 -70 41 -109 53 l-71 24 -11 -27 c-6 -14 -11 -69 -12 -121 l-1 -95 -95 -1 c-52 -1 -107 -6 -122 -12 l-26 -11 25 -73 c14 -40 38 -90 54 -110 16 -20 29 -39 29 -41 0 -3 -12 -8 -26 -11 -36 -9 -100 -51 -141 -93 l-35 -35 37 -38 c20 -21 68 -54 105 -73 l68 -35 -23 -22 c-27 -26 -60 -89 -79 -151 l-13 -46 52 -13 c31 -7 85 -11 129 -8 66 4 74 3 67 -11 -10 -19 -5 -154 7 -196 10 -34 18 -35 104 -4 31 12 75 37 97 56 27 22 41 29 41 20 0 -31 42 -108 85 -154 l45 -48 52 55 c34 36 60 75 72 109 18 52 19 53 35 33 23 -28 88 -66 148 -85 28 -9 54 -17 56 -17 3 0 13 34 22 77 13 57 15 88 8 122 l-9 46 70 -3 c72 -4 142 3 163 16 24 15 -26 150 -75 204 l-24 26 60 27 c33 15 79 46 103 72 l44 45 -50 44 c-27 25 -74 56 -103 69 l-54 25 35 42 c36 46 84 166 70 177 -19 17 -93 29 -164 27 l-76 -2 9 40 c8 37 -4 165 -18 188 -15 24 -162 -32 -204 -77 l-22 -24 -29 59 c-29 56 -30 62 -27 188 l3 131 195 -121 c270 -167 230 -152 414 -156 l159 -4 -5 71 c-7 94 -52 186 -128 262 -107 107 -182 129 -452 129 l-188 0 0 35 c0 46 -17 80 -47 94 -36 16 -67 13 -96 -10z"/>
 <path d="M1840 1958 c24 -27 45 -48 47 -48 8 0 0 9 -44 50 l-48 45 45 -47z"/>
 <path d="M12 1610 c0 -19 2 -27 5 -17 2 9 2 25 0 35 -3 9 -5 1 -5 -18z"/>
 <path d="M2014 1485 c0 -55 1 -76 3 -47 2 29 2 74 0 100 -2 26 -3 2 -3 -53z"/>
 <path d="M209 1043 l-34 -38 38 34 c34 33 42 41 34 41 -2 0 -19 -17 -38 -37z"/>
 <path d="M1855 980 c21 -22 41 -40 44 -40 3 0 -13 18 -34 40 -21 22 -41 40 -44 40 -3 0 13 -18 34 -40z"/>
 <path d="M1845 828 l-70 -73 73 70 c67 64 77 75 69 75 -1 0 -34 -33 -72 -72z"/>
 <path d="M1100 83 l-65 -68 68 65 c62 60 72 70 64 70 -1 0 -32 -30 -67 -67z"/>
 <path d="M880 117 c0 -2 15 -16 33 -33 l32 -29 -29 33 c-28 30 -36 37 -36 29z"/>
 </g>
<g id="layer103" fill="#613d30" stroke="none">
 <path d="M844 2198 l-29 -33 33 29 c17 17 32 31 32 33 0 8 -8 1 -36 -29z"/>
 <path d="M513 2123 c9 -2 25 -2 35 0 9 3 1 5 -18 5 -19 0 -27 -2 -17 -5z"/>
 <path d="M1840 1958 c24 -27 45 -48 47 -48 8 0 0 9 -44 50 l-48 45 45 -47z"/>
 <path d="M12 1610 c0 -19 2 -27 5 -17 2 9 2 25 0 35 -3 9 -5 1 -5 -18z"/>
 <path d="M979 1603 c-53 -56 -87 -104 -94 -135 -4 -16 -9 -28 -12 -28 -3 0 -23 14 -44 31 -21 16 -70 41 -109 53 l-71 24 -11 -27 c-6 -14 -11 -69 -12 -121 l-1 -95 -95 -1 c-52 -1 -107 -6 -122 -12 l-26 -11 25 -73 c14 -40 38 -90 54 -110 16 -20 29 -39 29 -41 0 -3 -12 -8 -26 -11 -36 -9 -100 -51 -141 -93 l-35 -35 37 -38 c20 -21 68 -54 105 -73 l68 -35 -23 -22 c-27 -26 -60 -89 -79 -151 l-13 -46 52 -13 c31 -7 85 -11 129 -8 66 4 74 3 67 -11 -10 -19 -5 -154 7 -196 10 -34 18 -35 104 -4 31 12 75 37 97 56 27 22 41 29 41 20 0 -31 42 -108 85 -154 l45 -48 52 55 c34 36 60 75 72 109 18 52 19 53 35 33 23 -28 88 -66 148 -85 28 -9 54 -17 56 -17 3 0 13 34 22 77 13 57 15 88 8 122 l-9 46 70 -3 c72 -4 142 3 163 16 24 15 -26 150 -75 204 l-24 26 60 27 c33 15 79 46 103 72 l44 45 -50 44 c-27 25 -74 56 -103 69 l-54 25 35 42 c36 46 84 166 70 177 -19 17 -93 29 -164 27 l-76 -2 9 40 c8 37 -4 165 -18 188 -15 24 -162 -32 -204 -77 l-22 -24 -29 57 c-15 31 -48 79 -71 105 l-43 49 -36 -39z"/>
 <path d="M2014 1485 c0 -55 1 -76 3 -47 2 29 2 74 0 100 -2 26 -3 2 -3 -53z"/>
 <path d="M209 1043 l-34 -38 38 34 c34 33 42 41 34 41 -2 0 -19 -17 -38 -37z"/>
 <path d="M1855 980 c21 -22 41 -40 44 -40 3 0 -13 18 -34 40 -21 22 -41 40 -44 40 -3 0 13 -18 34 -40z"/>
 <path d="M1845 828 l-70 -73 73 70 c67 64 77 75 69 75 -1 0 -34 -33 -72 -72z"/>
 <path d="M1100 83 l-65 -68 68 65 c62 60 72 70 64 70 -1 0 -32 -30 -67 -67z"/>
 <path d="M880 117 c0 -2 15 -16 33 -33 l32 -29 -29 33 c-28 30 -36 37 -36 29z"/>
 </g>
<g id="layer104" fill="#cb5211" stroke="none">
 <path d="M966 1589 c-49 -54 -86 -116 -86 -144 0 -21 -17 -19 -30 4 -13 25 -125 79 -169 83 -30 3 -35 0 -43 -27 -5 -16 -9 -69 -10 -116 l0 -86 -87 -1 c-47 0 -99 -5 -116 -10 -26 -8 -30 -13 -27 -41 3 -43 46 -134 77 -163 28 -26 31 -38 10 -38 -26 0 -94 -41 -147 -88 l-51 -46 48 -43 c45 -39 104 -74 148 -88 17 -5 16 -8 -11 -40 -34 -38 -68 -108 -78 -160 l-6 -33 58 -12 c32 -7 88 -10 125 -8 l66 5 -8 -41 c-7 -38 4 -177 16 -196 12 -20 146 34 199 80 30 27 36 29 36 14 0 -26 50 -110 94 -159 l36 -40 47 50 c25 28 58 77 73 109 24 53 28 57 38 40 13 -25 100 -73 163 -89 l48 -13 12 56 c6 30 9 85 7 122 l-4 67 63 -5 c54 -4 183 13 183 25 0 2 -9 31 -21 65 -22 67 -50 113 -83 140 -21 17 -21 17 -1 23 60 20 100 43 147 86 l53 47 -30 31 c-37 37 -142 101 -167 101 -24 0 -23 1 16 44 33 34 70 114 77 165 5 32 -28 42 -146 43 l-90 2 3 65 c2 36 -1 90 -8 119 l-12 54 -33 -6 c-52 -10 -122 -44 -160 -78 -32 -27 -35 -28 -40 -11 -14 44 -49 103 -88 148 l-43 48 -48 -54z m168 -398 c104 -46 176 -155 176 -267 0 -91 -24 -150 -89 -215 -64 -63 -124 -89 -207 -89 -195 0 -343 190 -290 371 52 183 242 275 410 200z"/>
 <path d="M2014 1485 c0 -55 1 -76 3 -47 2 29 2 74 0 100 -2 26 -3 2 -3 -53z"/>
 <path d="M209 1043 l-34 -38 38 34 c34 33 42 41 34 41 -2 0 -19 -17 -38 -37z"/>
 <path d="M1879 863 l-34 -38 38 34 c20 19 37 36 37 38 0 8 -8 0 -41 -34z"/>
 <path d="M880 117 c0 -2 15 -16 33 -33 l32 -29 -29 33 c-28 30 -36 37 -36 29z"/>
 <path d="M1064 48 l-29 -33 33 29 c17 17 32 31 32 33 0 8 -8 1 -36 -29z"/>
 </g>
<g id="layer105" fill="#696969" stroke="none">
 <path d="M966 1589 c-49 -54 -86 -116 -86 -144 0 -21 -17 -19 -30 4 -13 25 -125 79 -169 83 -30 3 -35 0 -43 -27 -5 -16 -9 -69 -10 -116 l0 -86 -87 -1 c-47 0 -99 -5 -116 -10 -26 -8 -30 -13 -27 -41 3 -43 46 -134 77 -163 28 -26 31 -38 10 -38 -26 0 -94 -41 -147 -88 l-51 -46 48 -43 c45 -39 104 -74 148 -88 17 -5 16 -8 -11 -40 -34 -38 -68 -108 -78 -160 l-6 -33 58 -12 c32 -7 88 -10 125 -8 l66 5 -8 -41 c-7 -38 4 -177 16 -196 12 -20 146 34 199 80 30 27 36 29 36 14 0 -26 50 -110 94 -159 l36 -40 47 50 c25 28 58 77 73 109 24 53 28 57 38 40 13 -25 100 -73 163 -89 l48 -13 12 56 c6 30 9 85 7 122 l-4 67 63 -5 c54 -4 183 13 183 25 0 2 -9 31 -21 65 -22 67 -50 113 -83 140 -21 17 -21 17 -1 23 60 20 100 43 147 86 l53 47 -30 31 c-37 37 -142 101 -167 101 -24 0 -23 1 16 44 33 34 70 114 77 165 5 32 -28 42 -146 43 l-90 2 3 65 c2 36 -1 90 -8 119 l-12 54 -33 -6 c-52 -10 -122 -44 -160 -78 -32 -27 -35 -28 -40 -11 -14 44 -49 103 -88 148 l-43 48 -48 -54z m138 -314 c73 -19 157 -74 201 -132 113 -148 96 -364 -37 -489 -168 -157 -430 -131 -559 57 -48 68 -64 125 -63 214 1 96 33 174 98 243 56 59 99 85 179 107 69 18 110 18 181 0z"/>
 <path d="M2014 1485 c0 -55 1 -76 3 -47 2 29 2 74 0 100 -2 26 -3 2 -3 -53z"/>
 <path d="M209 1043 l-34 -38 38 34 c34 33 42 41 34 41 -2 0 -19 -17 -38 -37z"/>
 <path d="M1879 863 l-34 -38 38 34 c20 19 37 36 37 38 0 8 -8 0 -41 -34z"/>
 <path d="M880 117 c0 -2 15 -16 33 -33 l32 -29 -29 33 c-28 30 -36 37 -36 29z"/>
 <path d="M1064 48 l-29 -33 33 29 c17 17 32 31 32 33 0 8 -8 1 -36 -29z"/>
 </g>
<g id="layer106" fill="#9f9f9f" stroke="none">
 <path d="M966 1589 c-49 -54 -86 -116 -86 -144 0 -21 -17 -19 -30 4 -13 25 -125 79 -169 83 -30 3 -35 0 -43 -27 -5 -16 -9 -69 -10 -116 l0 -86 -87 -1 c-47 0 -99 -5 -116 -10 -26 -8 -30 -13 -27 -41 3 -43 46 -134 77 -163 28 -26 31 -38 10 -38 -26 0 -94 -41 -147 -88 l-51 -46 48 -43 c45 -39 104 -74 148 -88 17 -5 16 -8 -11 -40 -34 -38 -68 -108 -78 -160 l-6 -33 58 -12 c32 -7 88 -10 125 -8 l66 5 -8 -41 c-7 -38 4 -177 16 -196 12 -20 146 34 199 80 30 27 36 29 36 14 0 -26 50 -110 94 -159 l36 -40 47 50 c25 28 58 77 73 109 24 53 28 57 38 40 13 -25 100 -73 163 -89 l48 -13 12 56 c6 30 9 85 7 122 l-4 67 63 -5 c54 -4 183 13 183 25 0 2 -9 31 -21 65 -22 67 -50 113 -83 140 -21 17 -21 17 -1 23 60 20 100 43 147 86 l53 47 -30 31 c-37 37 -142 101 -167 101 -24 0 -23 1 16 44 33 34 70 114 77 165 5 32 -28 42 -146 43 l-90 2 3 65 c2 36 -1 90 -8 119 l-12 54 -33 -6 c-52 -10 -122 -44 -160 -78 -32 -27 -35 -28 -40 -11 -14 44 -49 103 -88 148 l-43 48 -48 -54z m138 -314 c73 -19 157 -74 201 -132 113 -148 96 -364 -37 -489 -168 -157 -430 -131 -559 57 -48 68 -64 125 -63 214 1 96 33 174 98 243 56 59 99 85 179 107 69 18 110 18 181 0z"/>
 <path d="M209 1043 l-34 -38 38 34 c34 33 42 41 34 41 -2 0 -19 -17 -38 -37z"/>
 <path d="M880 117 c0 -2 15 -16 33 -33 l32 -29 -29 33 c-28 30 -36 37 -36 29z"/>
 </g>
<g id="layer107" fill="#ffc83d" stroke="none">
 <path d="M966 1589 c-49 -54 -86 -116 -86 -144 0 -21 -17 -19 -30 4 -13 25 -125 79 -169 83 -30 3 -35 0 -43 -27 -5 -16 -9 -69 -10 -116 l0 -86 -87 -1 c-47 0 -99 -5 -116 -10 -26 -8 -30 -13 -27 -41 3 -43 46 -134 77 -163 28 -26 31 -38 10 -38 -26 0 -94 -41 -147 -88 l-51 -46 48 -43 c45 -39 104 -74 148 -88 17 -5 16 -8 -11 -40 -34 -38 -68 -108 -78 -160 l-6 -33 58 -12 c32 -7 88 -10 125 -8 l66 5 -8 -41 c-7 -38 4 -177 16 -196 12 -20 146 34 199 80 30 27 36 29 36 14 0 -26 50 -110 94 -159 l36 -40 47 50 c25 28 58 77 73 109 24 53 28 57 38 40 13 -25 100 -73 163 -89 l48 -13 12 56 c6 30 9 85 7 122 l-4 67 63 -5 c54 -4 183 13 183 25 0 2 -9 31 -21 65 -22 67 -50 113 -83 140 -21 17 -21 17 -1 23 60 20 100 43 147 86 l53 47 -30 31 c-37 37 -142 101 -167 101 -24 0 -23 1 16 44 33 34 70 114 77 165 5 32 -28 42 -146 43 l-90 2 3 65 c2 36 -1 90 -8 119 l-12 54 -33 -6 c-52 -10 -122 -44 -160 -78 -32 -27 -35 -28 -40 -11 -14 44 -49 103 -88 148 l-43 48 -48 -54z m138 -314 c73 -19 157 -74 201 -132 113 -148 96 -364 -37 -489 -168 -157 -430 -131 -559 57 -48 68 -64 125 -63 214 1 96 33 174 98 243 56 59 99 85 179 107 69 18 110 18 181 0z"/>
 </g>

</svg>