<?xml version="1.0" encoding="UTF-8" standalone="no"?>
<!-- Generator: Adobe Illustrator 12.0.0, SVG Export Plug-In  -->

<svg
   xmlns:dc="http://purl.org/dc/elements/1.1/"
   xmlns:cc="http://creativecommons.org/ns#"
   xmlns:rdf="http://www.w3.org/1999/02/22-rdf-syntax-ns#"
   xmlns:svg="http://www.w3.org/2000/svg"
   xmlns="http://www.w3.org/2000/svg"
   xmlns:sodipodi="http://sodipodi.sourceforge.net/DTD/sodipodi-0.dtd"
   xmlns:inkscape="http://www.inkscape.org/namespaces/inkscape"
   version="1.0"
   width="39.118538"
   height="52"
   viewBox="0 0 50.854099 34.193939"
   enable-background="new 0 0 325 217"
   xml:space="preserve"
   id="svg2"
   sodipodi:version="0.32"
   inkscape:version="0.92.4 (5da689c313, 2019-01-14)"
   sodipodi:docname="rl.svg"
   inkscape:output_extension="org.inkscape.output.svg.inkscape"><metadata
   id="metadata9"><rdf:RDF><cc:Work
       rdf:about=""><dc:format>image/svg+xml</dc:format><dc:type
         rdf:resource="http://purl.org/dc/dcmitype/StillImage" /></cc:Work></rdf:RDF></metadata><sodipodi:namedview
   inkscape:window-height="952"
   inkscape:window-width="1280"
   inkscape:pageshadow="2"
   inkscape:pageopacity="0.0"
   guidetolerance="10.0"
   gridtolerance="10.0"
   objecttolerance="10.0"
   borderopacity="1.0"
   bordercolor="#666666"
   pagecolor="#ffffff"
   id="base"
   inkscape:zoom="1.2566667"
   inkscape:cx="372.86174"
   inkscape:cy="159.13076"
   inkscape:window-x="72"
   inkscape:window-y="11"
   inkscape:current-layer="svg2"
   inkscape:showpageshadow="false"
   width="250px"
   height="330px"
   showgrid="false"
   showborder="true"
   inkscape:window-maximized="1" />
<defs
   id="defs4" />

<g
   id="g2197"
   transform="matrix(0.45157585,0,0,0.45157585,-48.997897,-32.230496)"><rect
     y="114.81942"
     x="162.03348"
     height="48.274368"
     width="1.996866"
     id="rect3657"
     style="fill:#b5cece;fill-opacity:1;fill-rule:evenodd;stroke:none;stroke-width:2;stroke-linecap:round;stroke-linejoin:miter;stroke-miterlimit:4;stroke-dasharray:none;stroke-opacity:1" /><path
     id="path1873"
     d="m 107.36786,123.44307 c -0.0765,1.18969 -0.15601,2.37922 -0.15601,3.58812 0,30.53355 24.78588,55.31943 55.31943,55.31943 29.72611,0 53.994,-23.50001 55.25703,-52.91695 l -14.9141,-0.81122 c 0.0204,0.47215 0.0312,0.95808 0.0312,1.43524 1e-5,17.92358 -14.55669,32.44908 -32.48027,32.44908 -17.92359,1e-5 -32.44907,-14.5255 -32.44907,-32.44908 0,-1.66976 0.13095,-3.32764 0.37441,-4.92976 z"
     style="fill:#bdbdbd;fill-opacity:1;fill-rule:evenodd;stroke:#6b6b6b;stroke-width:1.99686599;stroke-linecap:butt;stroke-linejoin:miter;stroke-miterlimit:4;stroke-dasharray:none;stroke-opacity:1"
     inkscape:connector-curvature="0" /><path
     sodipodi:nodetypes="cccscc"
     id="path4544"
     d="M 108.51502,120.27902 H 217.41968 V 55.338506 c 0,-13.380952 -19.3214,-20.689015 -53.87764,-20.689015 -39.58628,0 -55.02702,10.300591 -55.02702,20.689015 z"
     style="fill:#ffffff;fill-opacity:1;fill-rule:evenodd;stroke:none;stroke-width:2;stroke-linecap:butt;stroke-linejoin:miter;stroke-miterlimit:4;stroke-dasharray:none;stroke-opacity:1"
     inkscape:connector-curvature="0" /><path
     sodipodi:nodetypes="ccccccccccccc"
     id="rect4548"
     transform="matrix(0.3616667,0,0,0.3616667,-0.25,0)"
     d="M 443.34375,95.875 V 213.03125 H 300.75 V 229.25 h 142.59375 v 103.34375 h 16.3125 V 229.25 h 142.1875 V 213.03125 H 459.65625 V 95.875 c -2.28491,-0.0241 -13.18559,-0.04929 -16.3125,0 z"
     style="fill:#ff0000;fill-opacity:1;fill-rule:evenodd;stroke:none;stroke-width:2;stroke-linecap:round;stroke-linejoin:miter;stroke-miterlimit:4;stroke-dasharray:none;stroke-opacity:1"
     inkscape:connector-curvature="0" /><path
     transform="matrix(0.998433,0,0,0.998433,9.5238226,4.9090328)"
     d="m 135.556,59.530281 c -0.18142,0.299203 -6.66124,-0.862308 -6.96427,-0.687355 -0.29468,0.170134 -2.33975,6.262738 -2.67993,6.255436 -0.34983,-0.0075 -2.58384,-6.199957 -2.88687,-6.374909 -0.29468,-0.170133 -6.59356,1.105091 -6.75733,0.806828 -0.16841,-0.306711 4.0774,-5.337649 4.0774,-5.687554 0,-0.340267 -4.25382,-5.157647 -4.0774,-5.448608 0.18141,-0.299202 6.66124,0.862308 6.96426,0.687355 0.29468,-0.170133 2.33975,-6.262737 2.67994,-6.255436 0.34982,0.0075 2.58384,6.199957 2.88686,6.374909 0.29468,0.170133 6.59357,-1.10509 6.75734,-0.806828 0.16841,0.306712 -4.0774,5.337649 -4.0774,5.687554 0,0.340267 4.25381,5.157647 4.0774,5.448608 z"
     inkscape:randomized="0"
     inkscape:rounded="0.05"
     inkscape:flatsided="false"
     sodipodi:arg2="1.068656"
     sodipodi:arg1="0.52359878"
     sodipodi:r2="5.5680809"
     sodipodi:r1="11.136162"
     sodipodi:cy="53.9622"
     sodipodi:cx="125.9118"
     sodipodi:sides="6"
     id="path4552"
     style="fill:#bdbdbd;fill-opacity:1;fill-rule:evenodd;stroke:none;stroke-width:2;stroke-linecap:round;stroke-linejoin:miter;stroke-miterlimit:4;stroke-dasharray:none;stroke-opacity:1"
     sodipodi:type="star" /><path
     sodipodi:type="star"
     style="fill:#bdbdbd;fill-opacity:1;fill-rule:evenodd;stroke:none;stroke-width:2;stroke-linecap:round;stroke-linejoin:miter;stroke-miterlimit:4;stroke-dasharray:none;stroke-opacity:1"
     id="path4554"
     sodipodi:sides="6"
     sodipodi:cx="125.9118"
     sodipodi:cy="53.9622"
     sodipodi:r1="11.136162"
     sodipodi:r2="5.5680809"
     sodipodi:arg1="0.52359878"
     sodipodi:arg2="1.068656"
     inkscape:flatsided="false"
     inkscape:rounded="0.05"
     inkscape:randomized="0"
     d="m 135.556,59.530281 c -0.18142,0.299203 -6.66124,-0.862308 -6.96427,-0.687355 -0.29468,0.170134 -2.33975,6.262738 -2.67993,6.255436 -0.34983,-0.0075 -2.58384,-6.199957 -2.88687,-6.374909 -0.29468,-0.170133 -6.59356,1.105091 -6.75733,0.806828 -0.16841,-0.306711 4.0774,-5.337649 4.0774,-5.687554 0,-0.340267 -4.25382,-5.157647 -4.0774,-5.448608 0.18141,-0.299202 6.66124,0.862308 6.96426,0.687355 0.29468,-0.170133 2.33975,-6.262737 2.67994,-6.255436 0.34982,0.0075 2.58384,6.199957 2.88686,6.374909 0.29468,0.170133 6.59357,-1.10509 6.75734,-0.806828 0.16841,0.306712 -4.0774,5.337649 -4.0774,5.687554 0,0.340267 4.25381,5.157647 4.0774,5.448608 z"
     transform="matrix(0.998433,0,0,0.998433,65.125554,4.9090328)" /><path
     transform="matrix(0.998433,0,0,0.998433,65.125554,47.867477)"
     d="m 135.556,59.530281 c -0.18142,0.299203 -6.66124,-0.862308 -6.96427,-0.687355 -0.29468,0.170134 -2.33975,6.262738 -2.67993,6.255436 -0.34983,-0.0075 -2.58384,-6.199957 -2.88687,-6.374909 -0.29468,-0.170133 -6.59356,1.105091 -6.75733,0.806828 -0.16841,-0.306711 4.0774,-5.337649 4.0774,-5.687554 0,-0.340267 -4.25382,-5.157647 -4.0774,-5.448608 0.18141,-0.299202 6.66124,0.862308 6.96426,0.687355 0.29468,-0.170133 2.33975,-6.262737 2.67994,-6.255436 0.34982,0.0075 2.58384,6.199957 2.88686,6.374909 0.29468,0.170133 6.59357,-1.10509 6.75734,-0.806828 0.16841,0.306712 -4.0774,5.337649 -4.0774,5.687554 0,0.340267 4.25381,5.157647 4.0774,5.448608 z"
     inkscape:randomized="0"
     inkscape:rounded="0.05"
     inkscape:flatsided="false"
     sodipodi:arg2="1.068656"
     sodipodi:arg1="0.52359878"
     sodipodi:r2="5.5680809"
     sodipodi:r1="11.136162"
     sodipodi:cy="53.9622"
     sodipodi:cx="125.9118"
     sodipodi:sides="6"
     id="path4556"
     style="fill:#bdbdbd;fill-opacity:1;fill-rule:evenodd;stroke:none;stroke-width:2;stroke-linecap:round;stroke-linejoin:miter;stroke-miterlimit:4;stroke-dasharray:none;stroke-opacity:1"
     sodipodi:type="star" /><path
     sodipodi:type="star"
     style="fill:#bdbdbd;fill-opacity:1;fill-rule:evenodd;stroke:none;stroke-width:2;stroke-linecap:round;stroke-linejoin:miter;stroke-miterlimit:4;stroke-dasharray:none;stroke-opacity:1"
     id="path4558"
     sodipodi:sides="6"
     sodipodi:cx="125.9118"
     sodipodi:cy="53.9622"
     sodipodi:r1="11.136162"
     sodipodi:r2="5.5680809"
     sodipodi:arg1="0.52359878"
     sodipodi:arg2="1.068656"
     inkscape:flatsided="false"
     inkscape:rounded="0.05"
     inkscape:randomized="0"
     d="m 135.556,59.530281 c -0.18142,0.299203 -6.66124,-0.862308 -6.96427,-0.687355 -0.29468,0.170134 -2.33975,6.262738 -2.67993,6.255436 -0.34983,-0.0075 -2.58384,-6.199957 -2.88687,-6.374909 -0.29468,-0.170133 -6.59356,1.105091 -6.75733,0.806828 -0.16841,-0.306711 4.0774,-5.337649 4.0774,-5.687554 0,-0.340267 -4.25382,-5.157647 -4.0774,-5.448608 0.18141,-0.299202 6.66124,0.862308 6.96426,0.687355 0.29468,-0.170133 2.33975,-6.262737 2.67994,-6.255436 0.34982,0.0075 2.58384,6.199957 2.88686,6.374909 0.29468,0.170133 6.59357,-1.10509 6.75734,-0.806828 0.16841,0.306712 -4.0774,5.337649 -4.0774,5.687554 0,0.340267 4.25381,5.157647 4.0774,5.448608 z"
     transform="matrix(0.998433,0,0,0.998433,9.5238226,47.867477)" /><path
     style="fill:none;fill-opacity:1;fill-rule:evenodd;stroke:#b5cece;stroke-width:1.99686599;stroke-linecap:butt;stroke-linejoin:miter;stroke-miterlimit:4;stroke-dasharray:none;stroke-opacity:1"
     d="M 108.51502,120.27902 H 217.41968 V 55.338506 c 0,-13.380952 -19.3214,-20.689015 -53.87764,-20.689015 -39.58628,0 -55.02702,10.300591 -55.02702,20.689015 z"
     id="path6340"
     sodipodi:nodetypes="cccscc"
     inkscape:connector-curvature="0" /></g></svg>