<svg xmlns="http://www.w3.org/2000/svg" viewBox="0 0 504.68 104.02"><defs><style>.cls-1{fill:#4ca22f;}.cls-2{fill:#063;}</style></defs><title>Risorsa 1</title><g id="Livello_2" data-name="Livello 2"><g id="Livello_1-2" data-name="Livello 1"><path class="cls-1" d="M122.16,77.49h-7L94.74,28.8h6.68l17.09,40.94L136,28.8h6.68Z"/><path class="cls-1" d="M151.44,55.32c.53,9.62,9,17.27,18.95,17.27a18.47,18.47,0,0,0,17-11.12h6.86c-3.12,9.25-12.64,17.17-23.68,17.17a25.45,25.45,0,0,1-25.72-25.72,25,25,0,0,1,25.28-25.28c14.41,0,25.36,10.42,25.36,27.68ZM170,33.7c-9.26,0-16.65,6.32-18.43,15.66h37.3C186.68,39.66,179.47,33.7,170,33.7Z"/><path class="cls-1" d="M211.15,49.09v28.4h-6.58V28.8h6.58v6.94c2.59-5.34,6.77-7.74,13.8-8.1v6.5C215.78,35,211.15,40,211.15,49.09Z"/><path class="cls-1" d="M271.85,77.49V68.68c-4.89,7-10.41,10-18.51,10-15,0-26.52-11-26.52-25.45S238,27.64,252.72,27.64a24.24,24.24,0,0,1,19.13,8.9V11.71h6.59V77.49ZM252.54,33.7a19.05,19.05,0,0,0-19,19.22,19.34,19.34,0,0,0,19.67,19.67c10.42,0,19-8.9,19-19.58A19.46,19.46,0,0,0,252.54,33.7Z"/><path class="cls-1" d="M294.37,55.32c.53,9.62,9,17.27,19,17.27a18.48,18.48,0,0,0,17-11.12h6.85c-3.12,9.25-12.64,17.17-23.68,17.17a25.46,25.46,0,0,1-25.72-25.72,25,25,0,0,1,25.28-25.28c14.42,0,25.37,10.42,25.37,27.68ZM313,33.7c-9.26,0-16.64,6.32-18.42,15.66h37.29C329.61,39.66,322.4,33.7,313,33.7Z"/><path class="cls-2" d="M354.09,49.09v28.4H347.5V28.8h6.59v6.94c2.58-5.34,6.76-7.74,13.79-8.1v6.5C358.72,35,354.09,40,354.09,49.09Z"/><path class="cls-2" d="M414.61,77.49V68.94c-5.16,6.94-10.5,9.7-18.78,9.7-14.95,0-26.08-10.85-26.08-25.36s11-25.64,25.63-25.64c8.46,0,14.42,3,19.23,9.79V28.8h6.59V77.49ZM395.56,33.7a19.1,19.1,0,0,0-19.13,19.13c0,11.13,8.45,19.76,19.49,19.76,10.5,0,18.69-8.63,18.69-19.67A18.88,18.88,0,0,0,395.56,33.7Z"/><path class="cls-2" d="M498.09,77.49V49.27c0-11-4.89-15.66-12.9-15.66-7.75,0-13.35,4.63-13.35,15.66V77.49h-6.59V49.09c0-10.85-5.7-15.39-13.17-15.39-8.19,0-13.09,5.69-13.09,15.39v28.4h-6.58V28.8H439v5.61c3.74-4.9,7.57-6.77,13.71-6.77,7.3,0,12.1,2.85,15.93,9.35,4.1-6.5,9.35-9.43,16.91-9.43,11.13,0,19.14,6.85,19.14,21V77.49Z"/><path class="cls-1" d="M77.93,2V70h2V0H0V70H2V2H77.93"/><path class="cls-1" d="M51.29,49.72a1.08,1.08,0,0,0-1.54,0l-8.91,8.91V47.94l4.5-4.5A1.09,1.09,0,0,0,43.8,41.9l-3,3V36.72a1.09,1.09,0,0,0-2.18,0V47.49h0v3.69l-5.23-5.3a1.09,1.09,0,1,0-1.55,1.53l6.78,6.87v7h0V70h2.18V61.71L51.29,51.25A1.07,1.07,0,0,0,51.29,49.72Z"/><path class="cls-1" d="M57.12,53.13a3.8,3.8,0,0,0-6.58,0,3.8,3.8,0,0,0,6.58,0Z"/><path class="cls-1" d="M61.58,41.71a2.82,2.82,0,0,0,1.5-4.65A2.79,2.79,0,0,0,61,39,2.84,2.84,0,0,0,61.58,41.71Z"/><path class="cls-1" d="M49.58,28.48A2.83,2.83,0,0,0,52,27.11a2.79,2.79,0,0,0,0-2.82,2.79,2.79,0,0,0-2.46,1.37A2.82,2.82,0,0,0,49.58,28.48Z"/><path class="cls-1" d="M49.6,32.36a2.63,2.63,0,0,0-2.57.35,2.6,2.6,0,0,0-1,2.41,2.59,2.59,0,0,0,3.55-2.76Z"/><path class="cls-1" d="M60.66,47.8a4.44,4.44,0,0,0-7.43,2,4.43,4.43,0,0,0,7.43-2Z"/><path class="cls-1" d="M62.75,42.64a3,3,0,0,0-4.13,3.23,3,3,0,0,0,4.13-3.23Z"/><path class="cls-1" d="M30.39,54.65a4.43,4.43,0,0,0-7.6-1,4.42,4.42,0,0,0,7.6,1Z"/><path class="cls-1" d="M50.94,17.52a3.45,3.45,0,0,0-5.38-2.61,3.45,3.45,0,0,0,5.38,2.61Z"/><path class="cls-1" d="M29.42,23.09a3.93,3.93,0,0,0-6.74-.89,3.93,3.93,0,0,0,6.74.89Z"/><path class="cls-1" d="M60.33,38.21a2.22,2.22,0,0,0-3,2.37,2.22,2.22,0,0,0,3-2.37Z"/><path class="cls-1" d="M54.28,36.66a3,3,0,0,0,1.33,5,3,3,0,0,0-1.33-5Z"/><path class="cls-1" d="M53.78,22.47a3,3,0,0,0,1.33,5,3,3,0,0,0-1.33-5Z"/><path class="cls-1" d="M22.19,42a3,3,0,0,0,1.34,5,3,3,0,0,0-1.34-5Z"/><path class="cls-1" d="M24.84,32.18a2.26,2.26,0,0,0,1.22,1.92A2.29,2.29,0,0,0,28.34,34a2.3,2.3,0,0,0-1.23-1.92A2.27,2.27,0,0,0,24.84,32.18Z"/><path class="cls-1" d="M34,28.75a2.05,2.05,0,0,0,.13,3.55A2.05,2.05,0,0,0,34,28.75Z"/><path class="cls-1" d="M21.88,19.77A2,2,0,0,0,20.24,21a2.06,2.06,0,0,0,.24,2,2.06,2.06,0,0,0,1.65-1.23A2.09,2.09,0,0,0,21.88,19.77Z"/><path class="cls-1" d="M34.92,19.71A2.05,2.05,0,0,0,36,23.09a2.05,2.05,0,0,0-1.11-3.38Z"/><path class="cls-1" d="M36.4,53.29a1.74,1.74,0,0,0,.78,2.91,1.74,1.74,0,0,0-.78-2.91Z"/><path class="cls-1" d="M29,40.19a1.74,1.74,0,0,0,.78,2.91A1.74,1.74,0,0,0,29,40.19Z"/><path class="cls-1" d="M28.91,49.42a1.74,1.74,0,0,0,.78,2.91,1.74,1.74,0,0,0-.78-2.91Z"/><path class="cls-1" d="M41.59,38.82a2.84,2.84,0,0,0,3.79-3.13,2.84,2.84,0,0,0-3.79,3.13Z"/><path class="cls-1" d="M22.76,34.6a2.83,2.83,0,0,0,3.73,3.2,2.83,2.83,0,0,0-3.73-3.2Z"/><path class="cls-1" d="M19.61,23.22a2.67,2.67,0,0,0-1.78,4.28,2.67,2.67,0,0,0,1.78-4.28Z"/><path class="cls-1" d="M15.57,35.57a2.27,2.27,0,0,0,2,3.4,2.27,2.27,0,0,0-2-3.4Z"/><path class="cls-1" d="M55.7,42.85a2,2,0,0,0,3.52-.33,2,2,0,0,0-3.52.33Z"/><path class="cls-1" d="M34,37.67A2.85,2.85,0,0,0,35,40.35a2.81,2.81,0,0,0,2.79.52A2.84,2.84,0,0,0,34,37.67Z"/><path class="cls-1" d="M22.31,18.47a2.38,2.38,0,0,0,4,1.23,2.38,2.38,0,0,0-4-1.23Z"/><path class="cls-1" d="M46.24,45.06a3.05,3.05,0,0,0,.63,3,3,3,0,0,0,2.88.92,3,3,0,0,0-3.51-3.88Z"/><path class="cls-1" d="M15.88,40a4,4,0,0,0,4.59,5.09A4,4,0,0,0,15.88,40Z"/><path class="cls-1" d="M19.69,34.77a3.11,3.11,0,0,0,.72,5.34,3.1,3.1,0,0,0-.72-5.34Z"/><path class="cls-1" d="M43.22,48.65a2.39,2.39,0,0,0,3.83,1.55,2.39,2.39,0,0,0-3.83-1.55Z"/><path class="cls-1" d="M49.13,35.38a2.39,2.39,0,0,0,2.81,3,2.39,2.39,0,0,0-2.81-3Z"/><path class="cls-1" d="M51.18,39.7a3.53,3.53,0,0,0-4.54,4.1,3.53,3.53,0,0,0,4.54-4.1Z"/><path class="cls-1" d="M45,30.9A3.53,3.53,0,0,0,40.49,35a3.52,3.52,0,0,0,3.45-.73A3.56,3.56,0,0,0,45,30.9Z"/><path class="cls-1" d="M62.7,31.35a2.52,2.52,0,0,0-1.27,4.19,2.51,2.51,0,0,0,1.84-1.73A2.54,2.54,0,0,0,62.7,31.35Z"/><path class="cls-1" d="M37.67,43a2.43,2.43,0,0,0-1.73,3.85A2.44,2.44,0,0,0,37.67,43Z"/><path class="cls-1" d="M43,26.56a2.43,2.43,0,0,0-1.74,3.85A2.44,2.44,0,0,0,43,26.56Z"/><path class="cls-1" d="M47.54,37.7a2.36,2.36,0,0,0-2.15.95A2.33,2.33,0,0,0,45.14,41a2.35,2.35,0,0,0,2.4-3.29Z"/><path class="cls-1" d="M54.72,19.67a2.35,2.35,0,0,0,2.68,3.06,2.34,2.34,0,0,0-2.68-3.06Z"/><path class="cls-1" d="M37.53,23.78a2.37,2.37,0,0,0,.41,2.32,2.32,2.32,0,0,0,2.2.81,2.35,2.35,0,0,0-2.61-3.13Z"/><path class="cls-1" d="M25.86,47.59a2.34,2.34,0,0,0-1.94,1.32,2.37,2.37,0,0,0,.17,2.35,2.35,2.35,0,0,0,1.77-3.67Z"/><path class="cls-1" d="M32.35,20a2.35,2.35,0,0,0-1.77,3.67,2.34,2.34,0,0,0,1.94-1.32A2.37,2.37,0,0,0,32.35,20Z"/><path class="cls-1" d="M37,16.64a2.27,2.27,0,0,0,.47,3.9,2.29,2.29,0,0,0,.89-2.09A2.27,2.27,0,0,0,37,16.64Z"/><path class="cls-1" d="M43.48,12.58A2.26,2.26,0,0,0,44,16.47a2.26,2.26,0,0,0-.47-3.89Z"/><path class="cls-1" d="M33.4,50.17a2.68,2.68,0,0,0-2,4.18,2.67,2.67,0,0,0,2-4.18Z"/><path class="cls-1" d="M51.61,55.43a2.08,2.08,0,0,0-3.43,1.1,2.07,2.07,0,0,0,2,.44A2,2,0,0,0,51.61,55.43Z"/><path class="cls-1" d="M43.62,51.38a2.08,2.08,0,0,0-.8,3.52,2.09,2.09,0,0,0,.8-3.52Z"/><path class="cls-1" d="M52.91,27.57a2.09,2.09,0,0,0-.81,3.52,2.09,2.09,0,0,0,.81-3.52Z"/><path class="cls-1" d="M53.53,41.9a4,4,0,0,0-1.82,6.63,4,4,0,0,0,1.82-6.63Z"/><path class="cls-1" d="M59,31.4A4,4,0,0,0,57.21,38,4,4,0,0,0,59,31.4Z"/><path class="cls-1" d="M27.6,43.29A3.63,3.63,0,0,0,30.25,49a3.64,3.64,0,0,0-2.65-5.72Z"/><path class="cls-1" d="M36.72,26.51A4.42,4.42,0,0,0,39,33.84a4.42,4.42,0,0,0-2.24-7.33Z"/><path class="cls-1" d="M27.4,14.55a4.07,4.07,0,0,0,2.06,6.73,4.06,4.06,0,0,0-2.06-6.73Z"/><path class="cls-1" d="M45.63,21.4a3.42,3.42,0,0,0-1.16,5.81,3.42,3.42,0,0,0,1.16-5.81Z"/><path class="cls-1" d="M58.84,22.71a4.42,4.42,0,0,0,1.88,7.43,4.42,4.42,0,0,0-1.88-7.43Z"/><path class="cls-1" d="M29,25a4.42,4.42,0,0,0-5.11,5.71A4.42,4.42,0,0,0,29,25Z"/><path class="cls-1" d="M36.46,12.7a4.42,4.42,0,0,0-5.11,5.71,4.43,4.43,0,0,0,5.11-5.71Z"/><path class="cls-1" d="M38.34,12.36a4,4,0,0,0,3.45,6.09,4,4,0,0,0-3.45-6.09Z"/><path class="cls-1" d="M45.15,16.65A2.81,2.81,0,0,0,43.4,21.2a2.81,2.81,0,0,0,1.75-4.55Z"/><path class="cls-1" d="M39.26,18.68a3.79,3.79,0,0,0,2.74,6,3.79,3.79,0,0,0-2.74-6Z"/><path class="cls-1" d="M52.84,18.39a4.35,4.35,0,0,0-4.11,1.35A4.29,4.29,0,0,0,47.85,24,4.32,4.32,0,0,0,52,22.63,4.36,4.36,0,0,0,52.84,18.39Z"/><path class="cls-1" d="M16.44,29.11a3.69,3.69,0,0,0,1.87,6.13,3.7,3.7,0,0,0-1.87-6.13Z"/><path class="cls-1" d="M31.34,39.23a4,4,0,0,0,3.4,6,4,4,0,0,0-3.4-6Z"/><path class="cls-1" d="M30.45,34.17a3.23,3.23,0,0,0-2.29,5.1,3.23,3.23,0,0,0,2.29-5.1Z"/><path class="cls-1" d="M33.86,22.89a3.23,3.23,0,0,0-1,5.5,3.23,3.23,0,0,0,1-5.5Z"/><path class="cls-1" d="M47.55,26.07a3.23,3.23,0,0,0-1,5.51,3.23,3.23,0,0,0,1-5.51Z"/><path class="cls-1" d="M30.88,27.94a3.06,3.06,0,0,0-.13,5.31,3.06,3.06,0,0,0,.13-5.31Z"/><path class="cls-1" d="M20.94,28a3.22,3.22,0,0,0,.75,5.54A3.22,3.22,0,0,0,20.94,28Z"/><path class="cls-1" d="M21.21,23.35a2.54,2.54,0,0,0,2.09,3.88,2.57,2.57,0,0,0,.08-2.55A2.53,2.53,0,0,0,21.21,23.35Z"/><path class="cls-1" d="M56.55,27.2a3.23,3.23,0,0,0-1,5.51,3.23,3.23,0,0,0,1-5.51Z"/><path class="cls-1" d="M22.05,39A3.54,3.54,0,0,0,27.5,41.8,3.54,3.54,0,0,0,22.05,39Z"/><path class="cls-1" d="M17.63,47.3a3,3,0,0,0,5.15.84,3,3,0,0,0-5.15-.84Z"/><path class="cls-1" d="M32.28,33.42A3.68,3.68,0,0,0,38,36.3a3.68,3.68,0,0,0-5.68-2.88Z"/><path class="cls-1" d="M51.14,31.86a3.23,3.23,0,0,0,4.15,3.76,3.23,3.23,0,0,0-4.15-3.76Z"/><path class="cls-1" d="M29.2,58.12a4,4,0,0,0,6.63-1.84,4,4,0,0,0-6.63,1.84Z"/><path class="cls-2" d="M41.29,70l6.8,6.81v4.07a2.51,2.51,0,1,1-3.72,2.19,2.53,2.53,0,0,1,1.54-2.32v-3l-5.07-5.08V94.21h2.93l-4,7-4-7h2.93V76.45l-5.44,5.44v3.84h1.43v5h-5v-5H31V81l7.62-7.61V70H0v34H79.93V70Z"/></g></g></svg>