<?xml version="1.0" encoding="UTF-8" standalone="no"?>
<svg
   xmlns:dc="http://purl.org/dc/elements/1.1/"
   xmlns:cc="http://creativecommons.org/ns#"
   xmlns:rdf="http://www.w3.org/1999/02/22-rdf-syntax-ns#"
   xmlns:svg="http://www.w3.org/2000/svg"
   xmlns="http://www.w3.org/2000/svg"
   xmlns:sodipodi="http://sodipodi.sourceforge.net/DTD/sodipodi-0.dtd"
   xmlns:inkscape="http://www.inkscape.org/namespaces/inkscape"
   viewBox="0 0 504.68 104.02"
   version="1.1"
   id="svg4079"
   sodipodi:docname="vrwhite.svg"
   inkscape:version="0.92.4 (5da689c313, 2019-01-14)">
  <metadata
     id="metadata4083">
    <rdf:RDF>
      <cc:Work
         rdf:about="">
        <dc:format>image/svg+xml</dc:format>
        <dc:type
           rdf:resource="http://purl.org/dc/dcmitype/StillImage" />
        <dc:title>Risorsa 1</dc:title>
      </cc:Work>
    </rdf:RDF>
  </metadata>
  <sodipodi:namedview
     pagecolor="#ffffff"
     bordercolor="#666666"
     borderopacity="1"
     objecttolerance="10"
     gridtolerance="10"
     guidetolerance="10"
     inkscape:pageopacity="0"
     inkscape:pageshadow="2"
     inkscape:window-width="3840"
     inkscape:window-height="2081"
     id="namedview4081"
     showgrid="false"
     inkscape:zoom="2.5780227"
     inkscape:cx="-36.034035"
     inkscape:cy="85.869851"
     inkscape:window-x="-9"
     inkscape:window-y="-9"
     inkscape:window-maximized="1"
     inkscape:current-layer="Livello_1-2"
     inkscape:pagecheckerboard="true" />
  <defs
     id="defs3901">
    <style
       id="style3899">.cls-1{fill:#4ca22f;}.cls-2{fill:#063;}</style>
  </defs>
  <title
     id="title3903">Risorsa 1</title>
  <g
     data-name="Livello 1"
     id="Livello_1-2">
    <path
       style="opacity:1;fill:#ffffff"
       inkscape:connector-curvature="0"
       id="path3905"
       d="m 122.16,77.49 h -7 L 94.74,28.8 h 6.68 L 118.51,69.74 136,28.8 h 6.68 z"
       class="cls-1" />
    <path
       style="opacity:1;fill:#ffffff"
       inkscape:connector-curvature="0"
       id="path3907"
       d="m 151.44,55.32 c 0.53,9.62 9,17.27 18.95,17.27 a 18.47,18.47 0 0 0 17,-11.12 h 6.86 c -3.12,9.25 -12.64,17.17 -23.68,17.17 A 25.45,25.45 0 0 1 144.85,52.92 25,25 0 0 1 170.13,27.64 c 14.41,0 25.36,10.42 25.36,27.68 z M 170,33.7 c -9.26,0 -16.65,6.32 -18.43,15.66 h 37.3 C 186.68,39.66 179.47,33.7 170,33.7 Z"
       class="cls-1" />
    <path
       style="opacity:1;fill:#ffffff"
       inkscape:connector-curvature="0"
       id="path3909"
       d="m 211.15,49.09 v 28.4 h -6.58 V 28.8 h 6.58 v 6.94 c 2.59,-5.34 6.77,-7.74 13.8,-8.1 v 6.5 C 215.78,35 211.15,40 211.15,49.09 Z"
       class="cls-1" />
    <path
       style="opacity:1;fill:#ffffff"
       inkscape:connector-curvature="0"
       id="path3911"
       d="m 271.85,77.49 v -8.81 c -4.89,7 -10.41,10 -18.51,10 -15,0 -26.52,-11 -26.52,-25.45 0,-14.45 11.18,-25.59 25.9,-25.59 a 24.24,24.24 0 0 1 19.13,8.9 V 11.71 h 6.59 V 77.49 Z M 252.54,33.7 a 19.05,19.05 0 0 0 -19,19.22 19.34,19.34 0 0 0 19.67,19.67 c 10.42,0 19,-8.9 19,-19.58 A 19.46,19.46 0 0 0 252.54,33.7 Z"
       class="cls-1" />
    <path
       style="opacity:1;fill:#ffffff"
       inkscape:connector-curvature="0"
       id="path3913"
       d="m 294.37,55.32 c 0.53,9.62 9,17.27 19,17.27 a 18.48,18.48 0 0 0 17,-11.12 h 6.85 c -3.12,9.25 -12.64,17.17 -23.68,17.17 A 25.46,25.46 0 0 1 287.82,52.92 25,25 0 0 1 313.1,27.64 c 14.42,0 25.37,10.42 25.37,27.68 z M 313,33.7 c -9.26,0 -16.64,6.32 -18.42,15.66 h 37.29 C 329.61,39.66 322.4,33.7 313,33.7 Z"
       class="cls-1" />
    <path
       style="opacity:1;fill:#ffffff"
       inkscape:connector-curvature="0"
       id="path3915"
       d="m 354.09,49.09 v 28.4 H 347.5 V 28.8 h 6.59 v 6.94 c 2.58,-5.34 6.76,-7.74 13.79,-8.1 v 6.5 C 358.72,35 354.09,40 354.09,49.09 Z"
       class="cls-2" />
    <path
       style="opacity:1;fill:#ffffff"
       inkscape:connector-curvature="0"
       id="path3917"
       d="m 414.61,77.49 v -8.55 c -5.16,6.94 -10.5,9.7 -18.78,9.7 -14.95,0 -26.08,-10.85 -26.08,-25.36 0,-14.51 11,-25.64 25.63,-25.64 8.46,0 14.42,3 19.23,9.79 V 28.8 h 6.59 V 77.49 Z M 395.56,33.7 a 19.1,19.1 0 0 0 -19.13,19.13 c 0,11.13 8.45,19.76 19.49,19.76 10.5,0 18.69,-8.63 18.69,-19.67 A 18.88,18.88 0 0 0 395.56,33.7 Z"
       class="cls-2" />
    <path
       style="opacity:1;fill:#ffffff"
       inkscape:connector-curvature="0"
       id="path3919"
       d="M 498.09,77.49 V 49.27 c 0,-11 -4.89,-15.66 -12.9,-15.66 -7.75,0 -13.35,4.63 -13.35,15.66 v 28.22 h -6.59 v -28.4 c 0,-10.85 -5.7,-15.39 -13.17,-15.39 -8.19,0 -13.09,5.69 -13.09,15.39 v 28.4 h -6.58 V 28.8 H 439 v 5.61 c 3.74,-4.9 7.57,-6.77 13.71,-6.77 7.3,0 12.1,2.85 15.93,9.35 4.1,-6.5 9.35,-9.43 16.91,-9.43 11.13,0 19.14,6.85 19.14,21 v 28.93 z"
       class="cls-2" />
    <path
       style="opacity:1;fill:#ffffff"
       inkscape:connector-curvature="0"
       id="path3921"
       d="m 77.93,2 v 68 h 2 V 0 H 0 V 70 H 2 V 2 h 75.93"
       class="cls-1" />
    <path
       style="opacity:1;fill:#ffffff"
       inkscape:connector-curvature="0"
       id="path3923"
       d="m 51.29,49.72 a 1.08,1.08 0 0 0 -1.54,0 l -8.91,8.91 V 47.94 l 4.5,-4.5 A 1.09,1.09 0 0 0 43.8,41.9 l -3,3 v -8.18 a 1.09,1.09 0 0 0 -2.18,0 v 10.77 0 3.69 l -5.23,-5.3 a 1.09,1.09 0 1 0 -1.55,1.53 l 6.78,6.87 v 7 0 V 70 H 40.8 V 61.71 L 51.29,51.25 a 1.07,1.07 0 0 0 0,-1.53 z"
       class="cls-1" />
    <path
       style="opacity:1;fill:#ffffff"
       inkscape:connector-curvature="0"
       id="path3925"
       d="m 57.12,53.13 a 3.8,3.8 0 0 0 -6.58,0 3.8,3.8 0 0 0 6.58,0 z"
       class="cls-1" />
    <path
       style="opacity:1;fill:#ffffff"
       inkscape:connector-curvature="0"
       id="path3927"
       d="M 61.58,41.71 A 2.82,2.82 0 0 0 63.08,37.06 2.79,2.79 0 0 0 61,39 a 2.84,2.84 0 0 0 0.58,2.71 z"
       class="cls-1" />
    <path
       style="opacity:1;fill:#ffffff"
       inkscape:connector-curvature="0"
       id="path3929"
       d="m 49.58,28.48 a 2.83,2.83 0 0 0 2.42,-1.37 2.79,2.79 0 0 0 0,-2.82 2.79,2.79 0 0 0 -2.46,1.37 2.82,2.82 0 0 0 0.04,2.82 z"
       class="cls-1" />
    <path
       style="opacity:1;fill:#ffffff"
       inkscape:connector-curvature="0"
       id="path3931"
       d="m 49.6,32.36 a 2.63,2.63 0 0 0 -2.57,0.35 2.6,2.6 0 0 0 -1,2.41 2.59,2.59 0 0 0 3.55,-2.76 z"
       class="cls-1" />
    <path
       style="opacity:1;fill:#ffffff"
       inkscape:connector-curvature="0"
       id="path3933"
       d="m 60.66,47.8 a 4.44,4.44 0 0 0 -7.43,2 4.43,4.43 0 0 0 7.43,-2 z"
       class="cls-1" />
    <path
       style="opacity:1;fill:#ffffff"
       inkscape:connector-curvature="0"
       id="path3935"
       d="m 62.75,42.64 a 3,3 0 0 0 -4.13,3.23 3,3 0 0 0 4.13,-3.23 z"
       class="cls-1" />
    <path
       style="opacity:1;fill:#ffffff"
       inkscape:connector-curvature="0"
       id="path3937"
       d="m 30.39,54.65 a 4.43,4.43 0 0 0 -7.6,-1 4.42,4.42 0 0 0 7.6,1 z"
       class="cls-1" />
    <path
       style="opacity:1;fill:#ffffff"
       inkscape:connector-curvature="0"
       id="path3939"
       d="m 50.94,17.52 a 3.45,3.45 0 0 0 -5.38,-2.61 3.45,3.45 0 0 0 5.38,2.61 z"
       class="cls-1" />
    <path
       style="opacity:1;fill:#ffffff"
       inkscape:connector-curvature="0"
       id="path3941"
       d="m 29.42,23.09 a 3.93,3.93 0 0 0 -6.74,-0.89 3.93,3.93 0 0 0 6.74,0.89 z"
       class="cls-1" />
    <path
       style="opacity:1;fill:#ffffff"
       inkscape:connector-curvature="0"
       id="path3943"
       d="m 60.33,38.21 a 2.22,2.22 0 0 0 -3,2.37 2.22,2.22 0 0 0 3,-2.37 z"
       class="cls-1" />
    <path
       style="opacity:1;fill:#ffffff"
       inkscape:connector-curvature="0"
       id="path3945"
       d="m 54.28,36.66 a 3,3 0 0 0 1.33,5 3,3 0 0 0 -1.33,-5 z"
       class="cls-1" />
    <path
       style="opacity:1;fill:#ffffff"
       inkscape:connector-curvature="0"
       id="path3947"
       d="m 53.78,22.47 a 3,3 0 0 0 1.33,5 3,3 0 0 0 -1.33,-5 z"
       class="cls-1" />
    <path
       style="opacity:1;fill:#ffffff"
       inkscape:connector-curvature="0"
       id="path3949"
       d="m 22.19,42 a 3,3 0 0 0 1.34,5 3,3 0 0 0 -1.34,-5 z"
       class="cls-1" />
    <path
       style="opacity:1;fill:#ffffff"
       inkscape:connector-curvature="0"
       id="path3951"
       d="m 24.84,32.18 a 2.26,2.26 0 0 0 1.22,1.92 2.29,2.29 0 0 0 2.28,-0.1 2.3,2.3 0 0 0 -1.23,-1.92 2.27,2.27 0 0 0 -2.27,0.1 z"
       class="cls-1" />
    <path
       style="opacity:1;fill:#ffffff"
       inkscape:connector-curvature="0"
       id="path3953"
       d="M 34,28.75 A 2.05,2.05 0 0 0 34.13,32.3 2.05,2.05 0 0 0 34,28.75 Z"
       class="cls-1" />
    <path
       style="opacity:1;fill:#ffffff"
       inkscape:connector-curvature="0"
       id="path3955"
       d="m 21.88,19.77 a 2,2 0 0 0 -1.64,1.23 2.06,2.06 0 0 0 0.24,2 2.06,2.06 0 0 0 1.65,-1.23 2.09,2.09 0 0 0 -0.25,-2 z"
       class="cls-1" />
    <path
       style="opacity:1;fill:#ffffff"
       inkscape:connector-curvature="0"
       id="path3957"
       d="M 34.92,19.71 A 2.05,2.05 0 0 0 36,23.09 2.05,2.05 0 0 0 34.89,19.71 Z"
       class="cls-1" />
    <path
       style="opacity:1;fill:#ffffff"
       inkscape:connector-curvature="0"
       id="path3959"
       d="M 36.4,53.29 A 1.74,1.74 0 0 0 37.18,56.2 1.74,1.74 0 0 0 36.4,53.29 Z"
       class="cls-1" />
    <path
       style="opacity:1;fill:#ffffff"
       inkscape:connector-curvature="0"
       id="path3961"
       d="M 29,40.19 A 1.74,1.74 0 0 0 29.78,43.1 1.74,1.74 0 0 0 29,40.19 Z"
       class="cls-1" />
    <path
       style="opacity:1;fill:#ffffff"
       inkscape:connector-curvature="0"
       id="path3963"
       d="m 28.91,49.42 a 1.74,1.74 0 0 0 0.78,2.91 1.74,1.74 0 0 0 -0.78,-2.91 z"
       class="cls-1" />
    <path
       style="opacity:1;fill:#ffffff"
       inkscape:connector-curvature="0"
       id="path3965"
       d="m 41.59,38.82 a 2.84,2.84 0 0 0 3.79,-3.13 2.84,2.84 0 0 0 -3.79,3.13 z"
       class="cls-1" />
    <path
       style="opacity:1;fill:#ffffff"
       inkscape:connector-curvature="0"
       id="path3967"
       d="m 22.76,34.6 a 2.83,2.83 0 0 0 3.73,3.2 2.83,2.83 0 0 0 -3.73,-3.2 z"
       class="cls-1" />
    <path
       style="opacity:1;fill:#ffffff"
       inkscape:connector-curvature="0"
       id="path3969"
       d="m 19.61,23.22 a 2.67,2.67 0 0 0 -1.78,4.28 2.67,2.67 0 0 0 1.78,-4.28 z"
       class="cls-1" />
    <path
       style="opacity:1;fill:#ffffff"
       inkscape:connector-curvature="0"
       id="path3971"
       d="m 15.57,35.57 a 2.27,2.27 0 0 0 2,3.4 2.27,2.27 0 0 0 -2,-3.4 z"
       class="cls-1" />
    <path
       style="opacity:1;fill:#ffffff"
       inkscape:connector-curvature="0"
       id="path3973"
       d="m 55.7,42.85 a 2,2 0 0 0 3.52,-0.33 2,2 0 0 0 -3.52,0.33 z"
       class="cls-1" />
    <path
       style="opacity:1;fill:#ffffff"
       inkscape:connector-curvature="0"
       id="path3975"
       d="m 34,37.67 a 2.85,2.85 0 0 0 1,2.68 2.81,2.81 0 0 0 2.79,0.52 2.84,2.84 0 0 0 -3.79,-3.2 z"
       class="cls-1" />
    <path
       style="opacity:1;fill:#ffffff"
       inkscape:connector-curvature="0"
       id="path3977"
       d="m 22.31,18.47 a 2.38,2.38 0 0 0 4,1.23 2.38,2.38 0 0 0 -4,-1.23 z"
       class="cls-1" />
    <path
       style="opacity:1;fill:#ffffff"
       inkscape:connector-curvature="0"
       id="path3979"
       d="m 46.24,45.06 a 3.05,3.05 0 0 0 0.63,3 3,3 0 0 0 2.88,0.92 3,3 0 0 0 -3.51,-3.88 z"
       class="cls-1" />
    <path
       style="opacity:1;fill:#ffffff"
       inkscape:connector-curvature="0"
       id="path3981"
       d="M 15.88,40 A 4,4 0 0 0 20.47,45.09 4,4 0 0 0 15.88,40 Z"
       class="cls-1" />
    <path
       style="opacity:1;fill:#ffffff"
       inkscape:connector-curvature="0"
       id="path3983"
       d="m 19.69,34.77 a 3.11,3.11 0 0 0 0.72,5.34 3.1,3.1 0 0 0 -0.72,-5.34 z"
       class="cls-1" />
    <path
       style="opacity:1;fill:#ffffff"
       inkscape:connector-curvature="0"
       id="path3985"
       d="m 43.22,48.65 a 2.39,2.39 0 0 0 3.83,1.55 2.39,2.39 0 0 0 -3.83,-1.55 z"
       class="cls-1" />
    <path
       style="opacity:1;fill:#ffffff"
       inkscape:connector-curvature="0"
       id="path3987"
       d="m 49.13,35.38 a 2.39,2.39 0 0 0 2.81,3 2.39,2.39 0 0 0 -2.81,-3 z"
       class="cls-1" />
    <path
       style="opacity:1;fill:#ffffff"
       inkscape:connector-curvature="0"
       id="path3989"
       d="m 51.18,39.7 a 3.53,3.53 0 0 0 -4.54,4.1 3.53,3.53 0 0 0 4.54,-4.1 z"
       class="cls-1" />
    <path
       style="opacity:1;fill:#ffffff"
       inkscape:connector-curvature="0"
       id="path3991"
       d="M 45,30.9 A 3.53,3.53 0 0 0 40.49,35 3.52,3.52 0 0 0 43.94,34.27 3.56,3.56 0 0 0 45,30.9 Z"
       class="cls-1" />
    <path
       style="opacity:1;fill:#ffffff"
       inkscape:connector-curvature="0"
       id="path3993"
       d="m 62.7,31.35 a 2.52,2.52 0 0 0 -1.27,4.19 2.51,2.51 0 0 0 1.84,-1.73 2.54,2.54 0 0 0 -0.57,-2.46 z"
       class="cls-1" />
    <path
       style="opacity:1;fill:#ffffff"
       inkscape:connector-curvature="0"
       id="path3995"
       d="M 37.67,43 A 2.43,2.43 0 0 0 35.94,46.85 2.44,2.44 0 0 0 37.67,43 Z"
       class="cls-1" />
    <path
       style="opacity:1;fill:#ffffff"
       inkscape:connector-curvature="0"
       id="path3997"
       d="M 43,26.56 A 2.43,2.43 0 0 0 41.26,30.41 2.44,2.44 0 0 0 43,26.56 Z"
       class="cls-1" />
    <path
       style="opacity:1;fill:#ffffff"
       inkscape:connector-curvature="0"
       id="path3999"
       d="m 47.54,37.7 a 2.36,2.36 0 0 0 -2.15,0.95 2.33,2.33 0 0 0 -0.25,2.35 2.35,2.35 0 0 0 2.4,-3.29 z"
       class="cls-1" />
    <path
       style="opacity:1;fill:#ffffff"
       inkscape:connector-curvature="0"
       id="path4001"
       d="m 54.72,19.67 a 2.35,2.35 0 0 0 2.68,3.06 2.34,2.34 0 0 0 -2.68,-3.06 z"
       class="cls-1" />
    <path
       style="opacity:1;fill:#ffffff"
       inkscape:connector-curvature="0"
       id="path4003"
       d="m 37.53,23.78 a 2.37,2.37 0 0 0 0.41,2.32 2.32,2.32 0 0 0 2.2,0.81 2.35,2.35 0 0 0 -2.61,-3.13 z"
       class="cls-1" />
    <path
       style="opacity:1;fill:#ffffff"
       inkscape:connector-curvature="0"
       id="path4005"
       d="m 25.86,47.59 a 2.34,2.34 0 0 0 -1.94,1.32 2.37,2.37 0 0 0 0.17,2.35 2.35,2.35 0 0 0 1.77,-3.67 z"
       class="cls-1" />
    <path
       style="opacity:1;fill:#ffffff"
       inkscape:connector-curvature="0"
       id="path4007"
       d="M 32.35,20 A 2.35,2.35 0 0 0 30.58,23.67 2.34,2.34 0 0 0 32.52,22.35 2.37,2.37 0 0 0 32.35,20 Z"
       class="cls-1" />
    <path
       style="opacity:1;fill:#ffffff"
       inkscape:connector-curvature="0"
       id="path4009"
       d="m 37,16.64 a 2.27,2.27 0 0 0 0.47,3.9 2.29,2.29 0 0 0 0.89,-2.09 A 2.27,2.27 0 0 0 37,16.64 Z"
       class="cls-1" />
    <path
       style="opacity:1;fill:#ffffff"
       inkscape:connector-curvature="0"
       id="path4011"
       d="M 43.48,12.58 A 2.26,2.26 0 0 0 44,16.47 2.26,2.26 0 0 0 43.53,12.58 Z"
       class="cls-1" />
    <path
       style="opacity:1;fill:#ffffff"
       inkscape:connector-curvature="0"
       id="path4013"
       d="m 33.4,50.17 a 2.68,2.68 0 0 0 -2,4.18 2.67,2.67 0 0 0 2,-4.18 z"
       class="cls-1" />
    <path
       style="opacity:1;fill:#ffffff"
       inkscape:connector-curvature="0"
       id="path4015"
       d="m 51.61,55.43 a 2.08,2.08 0 0 0 -3.43,1.1 2.07,2.07 0 0 0 2,0.44 2,2 0 0 0 1.43,-1.54 z"
       class="cls-1" />
    <path
       style="opacity:1;fill:#ffffff"
       inkscape:connector-curvature="0"
       id="path4017"
       d="m 43.62,51.38 a 2.08,2.08 0 0 0 -0.8,3.52 2.09,2.09 0 0 0 0.8,-3.52 z"
       class="cls-1" />
    <path
       style="opacity:1;fill:#ffffff"
       inkscape:connector-curvature="0"
       id="path4019"
       d="m 52.91,27.57 a 2.09,2.09 0 0 0 -0.81,3.52 2.09,2.09 0 0 0 0.81,-3.52 z"
       class="cls-1" />
    <path
       style="opacity:1;fill:#ffffff"
       inkscape:connector-curvature="0"
       id="path4021"
       d="m 53.53,41.9 a 4,4 0 0 0 -1.82,6.63 4,4 0 0 0 1.82,-6.63 z"
       class="cls-1" />
    <path
       style="opacity:1;fill:#ffffff"
       inkscape:connector-curvature="0"
       id="path4023"
       d="M 59,31.4 A 4,4 0 0 0 57.21,38 4,4 0 0 0 59,31.4 Z"
       class="cls-1" />
    <path
       style="opacity:1;fill:#ffffff"
       inkscape:connector-curvature="0"
       id="path4025"
       d="M 27.6,43.29 A 3.63,3.63 0 0 0 30.25,49 3.64,3.64 0 0 0 27.6,43.28 Z"
       class="cls-1" />
    <path
       style="opacity:1;fill:#ffffff"
       inkscape:connector-curvature="0"
       id="path4027"
       d="M 36.72,26.51 A 4.42,4.42 0 0 0 39,33.84 4.42,4.42 0 0 0 36.76,26.51 Z"
       class="cls-1" />
    <path
       style="opacity:1;fill:#ffffff"
       inkscape:connector-curvature="0"
       id="path4029"
       d="m 27.4,14.55 a 4.07,4.07 0 0 0 2.06,6.73 4.06,4.06 0 0 0 -2.06,-6.73 z"
       class="cls-1" />
    <path
       style="opacity:1;fill:#ffffff"
       inkscape:connector-curvature="0"
       id="path4031"
       d="m 45.63,21.4 a 3.42,3.42 0 0 0 -1.16,5.81 3.42,3.42 0 0 0 1.16,-5.81 z"
       class="cls-1" />
    <path
       style="opacity:1;fill:#ffffff"
       inkscape:connector-curvature="0"
       id="path4033"
       d="m 58.84,22.71 a 4.42,4.42 0 0 0 1.88,7.43 4.42,4.42 0 0 0 -1.88,-7.43 z"
       class="cls-1" />
    <path
       style="opacity:1;fill:#ffffff"
       inkscape:connector-curvature="0"
       id="path4035"
       d="M 29,25 A 4.42,4.42 0 0 0 23.89,30.71 4.42,4.42 0 0 0 29,25 Z"
       class="cls-1" />
    <path
       style="opacity:1;fill:#ffffff"
       inkscape:connector-curvature="0"
       id="path4037"
       d="m 36.46,12.7 a 4.42,4.42 0 0 0 -5.11,5.71 4.43,4.43 0 0 0 5.11,-5.71 z"
       class="cls-1" />
    <path
       style="opacity:1;fill:#ffffff"
       inkscape:connector-curvature="0"
       id="path4039"
       d="m 38.34,12.36 a 4,4 0 0 0 3.45,6.09 4,4 0 0 0 -3.45,-6.09 z"
       class="cls-1" />
    <path
       style="opacity:1;fill:#ffffff"
       inkscape:connector-curvature="0"
       id="path4041"
       d="M 45.15,16.65 A 2.81,2.81 0 0 0 43.4,21.2 2.81,2.81 0 0 0 45.15,16.65 Z"
       class="cls-1" />
    <path
       style="opacity:1;fill:#ffffff"
       inkscape:connector-curvature="0"
       id="path4043"
       d="m 39.26,18.68 a 3.79,3.79 0 0 0 2.74,6 3.79,3.79 0 0 0 -2.74,-6 z"
       class="cls-1" />
    <path
       style="opacity:1;fill:#ffffff"
       inkscape:connector-curvature="0"
       id="path4045"
       d="M 52.84,18.39 A 4.35,4.35 0 0 0 48.73,19.74 4.29,4.29 0 0 0 47.85,24 4.32,4.32 0 0 0 52,22.63 4.36,4.36 0 0 0 52.84,18.39 Z"
       class="cls-1" />
    <path
       style="opacity:1;fill:#ffffff"
       inkscape:connector-curvature="0"
       id="path4047"
       d="m 16.44,29.11 a 3.69,3.69 0 0 0 1.87,6.13 3.7,3.7 0 0 0 -1.87,-6.13 z"
       class="cls-1" />
    <path
       style="opacity:1;fill:#ffffff"
       inkscape:connector-curvature="0"
       id="path4049"
       d="m 31.34,39.23 a 4,4 0 0 0 3.4,6 4,4 0 0 0 -3.4,-6 z"
       class="cls-1" />
    <path
       style="opacity:1;fill:#ffffff"
       inkscape:connector-curvature="0"
       id="path4051"
       d="m 30.45,34.17 a 3.23,3.23 0 0 0 -2.29,5.1 3.23,3.23 0 0 0 2.29,-5.1 z"
       class="cls-1" />
    <path
       style="opacity:1;fill:#ffffff"
       inkscape:connector-curvature="0"
       id="path4053"
       d="m 33.86,22.89 a 3.23,3.23 0 0 0 -1,5.5 3.23,3.23 0 0 0 1,-5.5 z"
       class="cls-1" />
    <path
       style="opacity:1;fill:#ffffff"
       inkscape:connector-curvature="0"
       id="path4055"
       d="m 47.55,26.07 a 3.23,3.23 0 0 0 -1,5.51 3.23,3.23 0 0 0 1,-5.51 z"
       class="cls-1" />
    <path
       style="opacity:1;fill:#ffffff"
       inkscape:connector-curvature="0"
       id="path4057"
       d="m 30.88,27.94 a 3.06,3.06 0 0 0 -0.13,5.31 3.06,3.06 0 0 0 0.13,-5.31 z"
       class="cls-1" />
    <path
       style="opacity:1;fill:#ffffff"
       inkscape:connector-curvature="0"
       id="path4059"
       d="M 20.94,28 A 3.22,3.22 0 0 0 21.69,33.54 3.22,3.22 0 0 0 20.94,28 Z"
       class="cls-1" />
    <path
       style="opacity:1;fill:#ffffff"
       inkscape:connector-curvature="0"
       id="path4061"
       d="m 21.21,23.35 a 2.54,2.54 0 0 0 2.09,3.88 2.57,2.57 0 0 0 0.08,-2.55 2.53,2.53 0 0 0 -2.17,-1.33 z"
       class="cls-1" />
    <path
       style="opacity:1;fill:#ffffff"
       inkscape:connector-curvature="0"
       id="path4063"
       d="m 56.55,27.2 a 3.23,3.23 0 0 0 -1,5.51 3.23,3.23 0 0 0 1,-5.51 z"
       class="cls-1" />
    <path
       style="opacity:1;fill:#ffffff"
       inkscape:connector-curvature="0"
       id="path4065"
       d="M 22.05,39 A 3.54,3.54 0 0 0 27.5,41.8 3.54,3.54 0 0 0 22.05,39 Z"
       class="cls-1" />
    <path
       style="opacity:1;fill:#ffffff"
       inkscape:connector-curvature="0"
       id="path4067"
       d="m 17.63,47.3 a 3,3 0 0 0 5.15,0.84 3,3 0 0 0 -5.15,-0.84 z"
       class="cls-1" />
    <path
       style="opacity:1;fill:#ffffff"
       inkscape:connector-curvature="0"
       id="path4069"
       d="M 32.28,33.42 A 3.68,3.68 0 0 0 38,36.3 3.68,3.68 0 0 0 32.32,33.42 Z"
       class="cls-1" />
    <path
       style="opacity:1;fill:#ffffff"
       inkscape:connector-curvature="0"
       id="path4071"
       d="m 51.14,31.86 a 3.23,3.23 0 0 0 4.15,3.76 3.23,3.23 0 0 0 -4.15,-3.76 z"
       class="cls-1" />
    <path
       style="opacity:1;fill:#ffffff"
       inkscape:connector-curvature="0"
       id="path4073"
       d="m 29.2,58.12 a 4,4 0 0 0 6.63,-1.84 4,4 0 0 0 -6.63,1.84 z"
       class="cls-1" />
    <path
       style="opacity:1;fill:#ffffff"
       inkscape:connector-curvature="0"
       id="path4075"
       d="m 41.29,70 6.8,6.81 v 4.07 a 2.51,2.51 0 1 1 -3.72,2.19 2.53,2.53 0 0 1 1.54,-2.32 v -3 l -5.07,-5.08 v 21.54 h 2.93 l -4,7 -4,-7 H 38.7 V 76.45 l -5.44,5.44 v 3.84 h 1.43 v 5 h -5 v -5 H 31 V 81 l 7.62,-7.61 V 70 H 0 v 34 H 79.93 V 70 Z"
       class="cls-2" />
  </g>
</svg>
